<?xml version="1.0" encoding="UTF-8" standalone="no"?>
<svg width="398px" height="181px" viewBox="0 0 398 181" version="1.1" xmlns="http://www.w3.org/2000/svg" xmlns:xlink="http://www.w3.org/1999/xlink">
    <!-- Generator: Sketch 3.8 (29681) - http://www.bohemiancoding.com/sketch -->
    <title>Group</title>
    <desc>Created with Sketch.</desc>
    <defs></defs>
    <g id="Page-1" stroke="none" stroke-width="1" fill="none" fill-rule="evenodd">
        <g id="Layer_1" transform="translate(-79.000000, -79.000000)" fill="#FFFFFF">
            <g id="Group" transform="translate(79.000000, 79.000000)">
                <circle id="Oval" cx="215.2" cy="54.2" r="14.8"></circle>
                <circle id="Oval" cx="233.7" cy="81.1" r="7.7"></circle>
                <circle id="Oval" cx="230" cy="16.1" r="15.6"></circle>
                <circle id="Oval" cx="259.7" cy="52.3" r="20.6"></circle>
                <g transform="translate(0.000000, 87.000000)" id="Shape">
                    <path d="M0.4,22.3 L17.6,22.3 L17.6,56.3 C17.6,62.7 18,67.1 18.9,69.5 C19.8,72 21.2,73.9 23.1,75.3 C25,76.7 27.4,77.4 30.3,77.4 C33.1,77.4 35.5,76.7 37.5,75.4 C39.5,74.1 40.9,72.1 41.9,69.4 C42.6,67.4 43,63.3 43,56.9 L43,22.4 L60,22.4 L60,52.5 C60,64.3 59.1,72.4 57.2,76.8 C54.9,82.1 51.6,86.2 47.1,89 C42.7,91.8 37,93.3 30.2,93.3 C22.8,93.3 16.8,91.6 12.2,88.3 C7.6,85 4.4,80.3 2.5,74.4 C1.2,70.3 0.5,62.8 0.5,52 L0.5,22.3 L0.4,22.3 Z"></path>
                    <path d="M108.1,33.1 L97.6,43.6 C93.3,39.4 89.4,37.2 85.9,37.2 C84,37.2 82.5,37.6 81.4,38.4 C80.3,39.2 79.8,40.2 79.8,41.4 C79.8,42.3 80.1,43.2 80.8,43.9 C81.5,44.7 83.2,45.7 85.9,47 L92.1,50.1 C98.7,53.3 103.2,56.6 105.6,60 C108,63.4 109.3,67.3 109.3,71.8 C109.3,77.8 107.1,82.8 102.7,86.9 C98.3,90.9 92.3,92.9 84.9,92.9 C75,92.9 67.1,89 61.2,81.3 L71.7,69.9 C73.7,72.2 76,74.1 78.7,75.5 C81.4,76.9 83.8,77.6 85.8,77.6 C88,77.6 89.8,77.1 91.2,76 C92.6,74.9 93.3,73.7 93.3,72.3 C93.3,69.7 90.8,67.1 85.9,64.6 L80.2,61.7 C69.2,56.2 63.7,49.3 63.7,41 C63.7,35.6 65.8,31.1 69.9,27.3 C74,23.5 79.3,21.6 85.8,21.6 C90.2,21.6 94.3,22.6 98.2,24.5 C102.1,26.7 105.4,29.5 108.1,33.1 L108.1,33.1 Z"></path>
                    <path d="M165.2,27.7 L182.2,27.7 L182.2,91.5 L165.2,91.5 L165.2,84.3 C161.9,87.5 158.5,89.7 155.2,91.1 C151.9,92.5 148.2,93.2 144.3,93.2 C135.5,93.2 128,89.8 121.6,83 C115.2,76.2 112,67.8 112,57.7 C112,47.2 115.1,38.7 121.3,32 C127.5,25.3 135,22 143.8,22 C147.9,22 151.7,22.8 155.3,24.3 C158.9,25.8 162.2,28.1 165.2,31.2 L165.2,27.7 L165.2,27.7 Z M147.3,37.6 C142,37.6 137.7,39.5 134.2,43.2 C130.7,46.9 129,51.7 129,57.5 C129,63.4 130.8,68.2 134.3,72 C137.8,75.8 142.2,77.7 147.4,77.7 C152.7,77.7 157.2,75.8 160.7,72.1 C164.2,68.4 166,63.5 166,57.5 C166,51.6 164.2,46.8 160.7,43.2 C157.1,39.5 152.7,37.6 147.3,37.6 L147.3,37.6 Z"></path>
                    <path d="M203.2,0.2 L203.2,31.2 C206.3,28.1 209.6,25.8 213.2,24.3 C216.8,22.8 220.6,22 224.7,22 C233.5,22 241.1,25.3 247.3,32 C253.5,38.7 256.6,47.3 256.6,57.7 C256.6,67.8 253.4,76.2 247,83 C240.6,89.8 233,93.2 224.3,93.2 C220.4,93.2 216.8,92.5 213.4,91.1 C210,89.7 206.7,87.4 203.4,84.3 L203.4,91.5 L186.5,91.5 L186.5,0.2 L203.2,0.2 L203.2,0.2 Z M221.1,37.6 C215.7,37.6 211.3,39.4 207.8,43.1 C204.3,46.8 202.5,51.5 202.5,57.4 C202.5,63.4 204.3,68.3 207.8,72 C211.3,75.7 215.8,77.6 221.1,77.6 C226.3,77.6 230.7,75.7 234.2,71.9 C237.8,68.1 239.5,63.3 239.5,57.4 C239.5,51.6 237.8,46.8 234.3,43.1 C230.8,39.5 226.4,37.6 221.1,37.6 L221.1,37.6 Z"></path>
                    <polygon points="283.9 0.2 300.9 0.2 300.9 91.5 283.9 91.5"></polygon>
                    <polygon points="305.4 0.2 322.4 0.2 322.4 91.5 305.4 91.5"></polygon>
                    <path d="M380.2,27.7 L397.2,27.7 L397.2,91.5 L380.2,91.5 L380.2,84.3 C376.9,87.5 373.6,89.7 370.2,91.1 C366.9,92.5 363.2,93.2 359.3,93.2 C350.5,93.2 343,89.8 336.6,83 C330.2,76.2 327,67.8 327,57.7 C327,47.2 330.1,38.7 336.3,32 C342.5,25.3 350,22 358.8,22 C362.9,22 366.7,22.8 370.2,24.3 C373.8,25.8 377.1,28.1 380.1,31.2 L380.1,27.7 L380.2,27.7 Z M362.3,37.6 C357,37.6 352.7,39.5 349.2,43.2 C345.7,46.9 344,51.7 344,57.5 C344,63.4 345.8,68.2 349.3,72 C352.8,75.8 357.2,77.7 362.4,77.7 C367.7,77.7 372.2,75.8 375.7,72.1 C379.2,68.4 381,63.5 381,57.5 C381,51.6 379.2,46.8 375.7,43.2 C372.2,39.5 367.7,37.6 362.3,37.6 L362.3,37.6 Z"></path>
                    <path d="M269.5,34.3 C264.8,34.3 261,38.1 261,42.8 L261,91.4 L278,91.4 L278,42.8 C278,38.2 274.2,34.3 269.5,34.3 L269.5,34.3 Z"></path>
                </g>
                <path d="M263.1,84.5 C267.3,84.5 270.9,86 273.9,89.1 C276.9,92.1 278.4,95.8 278.4,100.2 C278.4,104.5 276.9,108.1 273.9,111.1 C270.9,114.1 267.4,115.6 263.2,115.6 C258.9,115.6 255.3,114.1 252.3,111 C249.3,107.9 247.8,104.2 247.8,99.8 C247.8,95.6 249.3,92 252.3,89 C255.3,86 258.9,84.5 263.1,84.5 L263.1,84.5 Z" id="Shape"></path>
            </g>
        </g>
    </g>
</svg>